<?xml version="1.0" standalone="no"?>
<!DOCTYPE svg PUBLIC "-//W3C//DTD SVG 20010904//EN"
 "http://www.w3.org/TR/2001/REC-SVG-20010904/DTD/svg10.dtd">
<svg version="1.0" xmlns="http://www.w3.org/2000/svg"
 width="260.000000pt" height="260.000000pt" viewBox="0 0 260.000000 260.000000"
 preserveAspectRatio="xMidYMid meet">
<metadata>
Created by potrace 1.14, written by Peter Selinger 2001-2017
</metadata>
<g transform="translate(0.000000,260.000000) scale(0.100000,-0.100000)"
fill="#000000" stroke="none">
<path d="M1274 2443 c-29 -29 -85 -122 -125 -208 -77 -163 -119 -365 -122
-577 -2 -145 10 -139 -97 -43 -123 110 -301 211 -469 265 -122 39 -174 38
-179 -2 -2 -14 11 -68 28 -120 47 -140 120 -265 239 -405 l61 -73 -79 0 c-91
0 -229 -22 -298 -48 -65 -24 -67 -47 -12 -112 115 -137 376 -278 561 -305 l47
-7 -68 -67 c-71 -70 -161 -194 -161 -222 0 -36 25 -42 153 -37 152 7 246 29
364 89 l93 46 -5 -51 c-31 -306 -26 -365 29 -402 34 -22 98 -22 132 0 55 37
60 96 29 402 l-5 51 93 -46 c118 -60 212 -82 364 -89 128 -5 153 1 153 37 0
28 -90 152 -161 222 l-68 67 47 7 c185 27 446 168 561 305 55 66 53 88 -12
112 -52 20 -191 44 -299 54 l-67 5 72 89 c131 160 237 373 241 480 l1 45 -39
3 c-50 4 -210 -47 -319 -102 -103 -51 -214 -126 -287 -191 -107 -96 -95 -102
-97 43 -3 212 -45 414 -122 577 -57 122 -126 225 -151 225 -5 0 -16 -8 -26
-17z"/>
</g>
</svg>
